<?xml version="1.0" encoding="UTF-8"?>
<svg width="47px" height="76px" viewBox="0 0 47 76" version="1.1" xmlns="http://www.w3.org/2000/svg" xmlns:xlink="http://www.w3.org/1999/xlink">
    <title>Group</title>
    <g id="Page-1" stroke="none" stroke-width="1" fill="none" fill-rule="evenodd">
        <g id="Group" fill="#730638" fill-rule="nonzero">
            <path d="M24.56,32.4 L24.56,32.4 L28.32,22.64 L26.08,23.2 L25.36,24.96 L19.12,26.4 L18.56,24.96 L18.24,25.04 L20.56,30.96 C22.08,31.2 23.36,31.52 24.56,32.4 M25.28,25.36 L23.12,30.88 C22,30.72 20.8,30.8 20.8,30.8 L19.2,26.72 L25.28,25.36 Z" id="Shape"></path>
            <path d="M29.76,58.48 C30,58.08 30.24,57.6 30.48,57.2 L26.56,47.28 L26,45.92 C25.76,46.24 25.52,46.64 25.28,46.96 L25.76,48.08 L29.76,58.48 Z" id="Path"></path>
            <polygon id="Path" points="2.8 24.64 3.12 25.28 3.84 26.08 3.84 22.24 3.68 22.16"></polygon>
            <path d="M42.8,42.24 L42.56,42.16 C42.56,43.04 42.48,43.92 42.48,44.72 L39.2,44.16 C39.28,43.28 39.28,42.4 39.36,41.44 L42.64,42.16 L42.64,41.92 L39.52,41.12 L41.2,40.96 L42.56,40.56 L42.72,40.48 L42.88,40.56 L45.44,41.28 L42.4,41.92 L42.56,42.32 L42.88,42.24 L46.32,41.36 L46.32,38.96 L42.8,37.92 L42.8,37.92 C42.8,37.2 42.72,36.56 42.72,35.84 L44.16,35.2 L46,33.92 L45.76,31.44 L42.16,29.92 L42.16,29.92 L42.08,29.52 L43.2,28.64 L45.12,26.32 L44.32,24 L40.64,22.24 L40.08,22.48 L40.4,21.92 L43.84,21.12 L43.84,18.48 L42,17.44 L42,3.04 L42,3.04 L38.8,0.72 L36.08,1.76 L36.08,5.2 L32.88,3.04 L30.24,4.08 L30.24,18.88 L26.24,19.92 L26.24,17.36 L28.4,16.72 C29.68,16.32 29.76,15.52 29.76,15.04 L29.76,9.28 C29.76,8 29.04,7.6 29.04,7.6 L27.36,6.56 C26,5.68 25.12,6.08 25.12,6.08 L20.88,7.68 L20.88,10.4 L20.32,10.08 L20.32,5.76 L13.84,2.16 L13.84,2.56 L15.68,3.6 L15.68,8.8 L13.84,7.84 L13.84,2.56 L13.84,2.56 L13.84,2.16 L11.2,3.36 L11.2,8.8 L13.68,7.84 L13.68,8.32 L11.2,9.28 L11.2,14.88 L13.68,14.08 L13.68,14.56 L11.2,15.36 L11.2,21.04 L13.68,20.4 L13.68,20.88 L11.28,21.6 L11.28,27.12 L13.92,26.56 L13.92,21.28 L13.92,21.28 L13.92,20.88 L15.44,21.68 L15.44,22.8 L14.48,23.04 L14.48,25.52 L40.08,19.28 L43.28,20.96 L40.08,21.68 L37.68,20.4 L30,22.24 C30.24,22.64 30.4,23.12 30.64,23.6 L30.72,23.76 L30.48,23.84 L30.48,23.84 L30.4,23.44 L26.4,33.76 L26.08,33.68 L26.64,32.16 L28.8,26.56 L29.36,25.12 L29.68,24.4 L29.84,24.08 L30.24,23.04 C30.08,22.72 30,22.48 29.92,22.32 L28.8,22.56 L28,24.4 C26.96,27.28 25.84,30.08 24.72,32.96 L24.56,33.28 L24.4,33.28 L24.24,33.2 L24.4,32.72 C23.28,31.84 22,31.36 20.56,31.2 L20.16,31.2 L19.2,28.72 L17.84,25.2 L16.8,25.44 L17.6,27.52 C17.6,27.36 17.44,27.2 17.28,27.2 L17.28,27.2 L17.28,27.12 L16.64,25.44 L14.64,25.92 L14.64,26.8 L15.52,28.96 C15.28,29.2 15.2,29.36 15.2,29.6 C15.2,30 15.36,30.32 15.68,30.48 L15.68,32.8 L13.76,33.12 L13.68,33.12 L13.12,33.44 L11.36,33.76 L11.36,34.4 L10.88,34.64 L10.88,33.76 L8.8,34.16 L8.8,35.76 L8.32,36 L8.32,34.24 L6.56,34.56 L6.56,36.96 L6.08,37.2 L6.08,34.56 L4.16,34.88 L4.16,38.24 L3.84,38.4 L3.84,33.2 L3.84,32.24 L3.84,29.28 L2.8,28.88 L1.52,28.88 L0.96,31.12 L2,32.16 L3.68,33.12 C3.6,33.92 3.44,34.64 3.36,35.44 L2.16,35.28 L0.24,35.68 L-5.32907052e-16,37.84 L1.76,38.88 L2.64,39.2 L0.56,40.32 L0.4,40.72 L0.72,40.96 L3.04,40.72 C3.04,41.04 3.04,41.28 3.04,41.6 L3.76,40.72 L6,43.76 L6,58.72 C6.16,59.12 6.32,59.52 6.56,59.92 L6,59.92 L6,58.64 C5.92,58.4 5.84,58.16 5.76,58 C5.68,57.76 5.6,57.6 5.52,57.44 L5.52,57.12 L5.52,43.76 L3.68,41.28 L1.92,43.6 L1.92,46.32 L3.2,46.56 C3.28,47.28 3.36,48 3.44,48.72 L3.68,50.72 L4.08,52.32 C4.16,52.72 4.24,53.12 4.32,53.6 L2.4,53.44 L4.08,52.24 C3.84,51.12 3.6,49.92 3.44,48.64 L1.92,49.68 L1.92,53.68 L4.4,53.84 C4.48,54.08 4.56,54.32 4.56,54.64 L3.04,56.32 L2.24,58.08 L3.04,60.16 L5.36,60.16 L5.36,62.56 L5.76,61.52 L5.76,60.16 L6.48,60.16 L6.56,60.16 L6.48,60.24 L5.76,61.52 L5.76,63.6 C5.6,63.52 5.44,63.52 5.36,63.44 L5.36,62.48 L4.96,63.36 C4.48,63.28 4,63.2 3.52,63.2 C2.88,63.2 2.24,63.28 1.76,63.44 L1.76,53.68 L1.44,53.68 L1.28,53.6 L1.28,63.52 C0.56,63.92 -5.32907052e-16,64.48 -5.32907052e-16,65.04 C-5.32907052e-16,66 1.68,66.8 3.76,66.8 C5.28,66.8 6.64,66.32 7.2,65.68 L9.6,65.6 L9.12,67.04 L9.12,69.44 L10.16,70.48 L13.6,70.16 L13.6,70.24 L13.76,73.12 L15.12,73.84 L18.48,73.44 L18.96,74.88 L20.56,75.2 L24.4,74.8 L24.48,74.96 L24.48,75.04 L24.56,75.2 L25.92,75.2 L28.32,74.8 L29.92,74.32 L30.16,73.12 L33.44,72.72 L35.04,71.36 C37.28,71.12 38.88,70.24 38.88,69.12 C38.88,68.88 38.8,68.56 38.64,68.32 L39.84,66.88 L39.28,64.24 L38.56,63.04 L42,62.88 L43.04,61.04 L42.08,58.64 L40.88,56.96 C40.96,56.72 41.04,56.4 41.12,56.16 L44.48,56.32 L45.04,54 L43.68,52.32 L42.24,51.12 C42.4,50.4 42.48,49.76 42.56,49.04 L43.68,49.28 L46,49.04 L46.4,46.88 L44.64,45.6 L43.04,44.88 C43.12,44 43.12,43.12 43.12,42.24 L42.8,42.24 Z M42.88,38.16 L46.16,39.12 L46.16,41.04 L42.96,40.24 L42.88,38.16 L42.88,38.16 Z M36.16,10 L33.12,3.76 L36.16,5.76 L36.16,10 Z M32.88,10.4 L36.08,17.44 L36.08,17.52 L32.88,18.32 L32.88,10.4 Z M23.52,9.84 L24.48,10.32 L24.48,12.48 L24.24,12.8 L23.52,13.04 L23.52,9.84 Z M25.6,17.2 C26.16,17.44 26.08,18 26.08,18 L26.08,20.08 L23.52,20.72 L23.52,16.24 C24.16,16.48 25.2,16.96 25.6,17.2 M26.16,15.2 C27.12,14.88 27.12,13.76 27.12,13.76 C27.12,13.76 27.12,7.92 27.12,7.36 C27.12,6.8 26.88,6.64 26.88,6.64 C26.88,6.64 28.08,7.36 28.88,7.84 C29.68,8.32 29.6,9.52 29.6,9.52 L29.6,15.2 C29.6,16.16 28.48,16.64 28.48,16.64 L26.32,17.28 L23.84,16.08 C23.84,16.08 25.12,15.6 26.16,15.2 M24.24,9.36 L24.24,9.36 L24.48,9.52 L24.48,10.08 L23.52,9.6 L23.52,9.6 L24.24,9.36 Z M20.16,10.08 L18.64,9.28 L18.64,5.12 L20.16,6 L20.16,10.08 Z M17.36,9.2 L17.36,4.48 L18.4,5.04 L18.4,9.2 L18,8.96 L17.36,9.2 Z M16.08,3.76 L17.12,4.32 L17.12,9.28 L16.96,9.36 L16.08,8.88 L16.08,3.76 Z M13.92,8.24 L16.4,9.52 L15.44,9.92 L15.44,14.8 L13.92,14 L13.92,13.68 L13.92,13.68 L13.92,8.72 L13.92,8.72 L13.92,8.24 L13.92,8.24 Z M13.92,20.4 L13.92,20 L13.92,20 L13.92,14.88 L13.92,14.88 L13.92,14.48 L15.44,15.28 L15.44,21.12 L13.92,20.4 Z M17.92,9.36 L20.88,10.96 L20.88,21.44 L17.92,22.24 L17.92,9.36 Z M38.88,16.72 L38.88,1.28 L41.76,3.28 L41.76,17.28 L40.16,16.4 L38.88,16.72 Z M40.16,16.72 L43.52,18.64 L43.52,20.8 L40.16,18.96 L40.16,16.72 Z M2.24,46.08 L3.2,45.92 L3.2,46.24 L2.24,46.08 Z M5.52,59.84 L3.52,59.92 L4.88,58.8 L5.52,58.08 L5.52,59.84 Z M40.24,48.48 L42.16,48.88 C42.08,49.6 41.92,50.32 41.84,51.04 L38.32,50.72 C38.48,49.84 38.64,48.96 38.8,48.08 L40.24,48.48 Z M37.2,56.64 L37.2,56.64 L37.2,56.64 L37.2,54.48 C37.04,54.96 36.88,55.36 36.8,55.84 L36.8,56.56 L36.8,56.56 L36.8,56.56 L36.56,56.56 C36.64,56.32 36.72,56.08 36.8,55.84 L36.8,41.44 L34.48,38.08 L34.16,37.6 L33.84,38.24 L32.8,39.84 L33.84,39.76 L33.84,40.16 L33.84,40.24 L32.48,40.4 L31.84,41.44 L31.84,41.68 L33.84,41.52 C33.76,45.76 33.04,49.84 31.92,53.36 L32,64.96 L31.52,65.52 L31.44,54.64 C31.2,55.28 30.96,55.84 30.72,56.4 L26.88,46.72 C27.92,45.36 28.72,43.68 29.12,41.92 L31.36,41.68 L31.36,41.36 L32,40.32 L25.04,40.96 C24.96,41.84 24.8,42.64 24.56,43.36 C24.48,43.68 24.32,43.92 24.24,44.24 L24.56,45.12 L25.12,46.56 C25.36,46.24 25.6,45.92 25.84,45.52 L26.08,45.12 C26.56,44.24 26.96,43.2 27.2,42.16 L27.52,42.16 C27.28,43.44 26.8,44.56 26.24,45.6 L26.8,47.04 L30.64,56.8 L30.64,56.8 L30.64,56.8 L30.64,56.8 C30.32,57.6 29.92,58.24 29.6,58.96 L29.6,58.88 L25.52,48.32 L24.96,46.88 L24.96,46.88 L24.64,46.08 L24,44.64 C24,44.64 23.44,44.56 22.96,44.96 C22.64,45.2 22.4,45.6 22.32,45.76 C22.16,45.52 21.92,45.28 21.68,45.04 C22.64,44.16 23.28,42.8 23.52,41.2 C23.52,41.04 23.6,40.88 23.6,40.72 C23.6,40.48 23.6,40.16 23.6,39.92 C23.6,39.36 23.52,38.88 23.44,38.4 L24.56,38.24 L24.56,38.32 C24.48,38.64 24.32,39.28 24.56,39.92 C24.64,40.16 24.8,40.32 24.96,40.56 L29.36,40.16 L32.32,39.92 L33.76,37.44 L33.92,37.2 L34.32,37.12 L34.56,37.52 L37.12,41.36 L37.12,54.48 L37.28,54.08 L38.96,55.44 L40.56,55.92 C40.48,56.24 40.4,56.48 40.32,56.8 L37.2,56.64 Z M32.8,66.88 C32.56,66.88 32.24,66.96 32,67.04 L32,65.6 L32.8,66.88 Z M30.56,66.96 L31.52,65.76 L31.52,66.96 L30.56,66.96 Z M31.28,67.2 C30.88,67.36 30.56,67.52 30.24,67.68 L30.72,67.2 L31.28,67.2 Z M12.64,55.76 L12.64,55.76 L12.8,55.76 L13.04,55.76 C13.44,56 13.92,56.24 14.4,56.4 L14.72,56.48 C14.88,56.4 15.12,56.32 15.28,56.08 C15.44,55.84 15.68,55.6 15.76,55.12 C16.24,53.6 16.16,53.76 16.72,53.44 C17.12,53.2 17.12,52.8 17.2,52.32 C17.36,52.32 17.52,52.32 17.68,52.32 C17.6,52.64 17.6,52.8 17.6,53.04 C17.6,53.6 17.04,53.6 16.72,53.84 C16.4,54.08 16.48,54.4 16.4,54.8 C16.32,55.2 15.92,55.76 15.84,56.08 L15.76,56.24 C15.68,56.4 15.44,56.64 15.36,56.72 C15.6,56.8 15.84,56.8 16.08,56.8 C16.24,56.64 16.4,56.48 16.56,56.24 C16.8,55.92 17.12,55.6 17.2,55.44 C17.36,54.96 17.36,54.72 18.24,54.32 C19.6,53.68 18.96,52.8 19.36,52.4 L19.44,52.32 L19.68,52.32 C19.52,52.56 19.6,52.8 19.52,53.04 C19.36,53.36 19.28,53.92 19.04,54.16 C18.72,54.32 18.56,54.72 18.32,54.88 C18,55.04 17.84,55.2 17.68,55.6 C17.6,55.84 17.28,56.08 17.04,56.32 C16.8,56.56 16.72,56.72 16.88,56.88 L17.04,56.88 C19.76,56.8 22.16,55.12 22.96,52.4 C23.04,52.24 23.04,52.08 23.04,51.92 C22.24,54.4 20.08,56 17.44,56.24 L17.68,55.92 C17.92,55.52 18.56,55.04 18.88,54.64 C19.2,54.24 19.44,53.76 19.6,53.52 C19.76,53.2 19.68,52.72 20.08,52.32 C20.24,52.32 20.4,52.32 20.56,52.24 C20.48,52.48 20.4,52.72 20.16,53.2 C20.48,52.88 20.72,52.56 20.88,52.24 C21.04,52.24 21.2,52.16 21.36,52.16 C21.2,52.88 20.96,53.6 20.72,54.08 C21.12,53.6 21.44,52.88 21.6,52.16 C22.8,51.92 23.52,51.68 23.68,51.36 L23.68,51.36 C23.28,54.8 20.4,57.44 16.96,57.44 C15.28,57.36 13.76,56.72 12.64,55.76 M10.48,44.88 C10.48,44.48 10.48,44 10.48,43.52 L10.88,43.52 C10.88,43.84 10.88,44.8 10.96,45.76 C10.96,46 11.04,46.16 11.04,46.4 C10.88,46.56 10.8,46.8 10.72,46.96 C10.64,46.56 10.56,45.84 10.48,44.88 M11.28,43.6 L11.28,43.44 L13.6,43.2 C13.52,43.44 13.44,43.68 13.44,44 C12.64,44.48 11.92,45.12 11.36,45.84 C11.28,45.36 11.28,44.24 11.28,43.6 M15.44,40.96 L15.28,40.8 L15.12,40.8 L14.96,40.64 L14.72,40.8 L14.72,40.88 C14.24,40.88 13.76,40.8 13.44,40.64 C12.88,40.4 13.28,40.4 13.44,40.24 C13.6,40.08 12.8,40.08 12.8,39.76 C12.8,39.6 12.96,39.44 13.04,39.36 L14.56,39.2 C14.88,39.28 15.44,39.44 15.52,39.52 C15.76,39.68 17.84,39.84 18.4,39.92 C18.96,40.08 19.6,40.32 19.6,41.44 C19.6,42.32 18.56,42.56 18.08,42.56 L18.08,42.24 L18.08,42.16 L18.08,42.08 L18.24,41.92 L18.24,41.84 L18.32,41.84 L18.48,41.76 L18.4,41.68 L18.48,41.6 L18.4,41.76 L18.32,41.84 L18.4,41.92 L18.24,42 L18.24,42 L18.08,42 L18.08,41.84 C18.24,41.68 18.24,41.52 18.16,41.44 L18.32,41.28 L18.08,41.12 L17.92,41.2 L17.76,41.12 L17.84,41.04 L17.76,40.96 L17.84,40.88 L17.6,40.8 L17.44,40.88 L17.44,40.88 L17.36,40.88 L17.04,40.96 L16.96,40.96 L16.96,40.96 L16.72,40.8 L16.48,40.88 L16.4,40.88 L16.48,40.8 L16.24,40.64 L16.08,40.8 L16.08,40.88 L16,40.88 L15.84,40.8 L15.92,40.72 L15.76,40.56 L15.6,40.72 L15.76,40.88 L15.68,40.96 L15.68,40.96 L15.44,40.96 Z M10.64,53.04 C10.32,52.24 10.08,51.28 10.08,50.4 C10.08,47.84 11.44,45.6 13.44,44.4 C13.52,45.28 14.32,46.24 16.32,47.36 C16.24,47.44 16,47.68 15.92,47.92 C15.84,48.16 15.6,48.16 15.36,48.32 C15.12,48.48 14.72,48.88 14.8,49.36 C14.88,49.6 14.8,49.84 14.72,50 C14.4,50 14.08,50.08 13.84,50.08 C13.92,49.2 14,48.48 14.24,47.76 C13.84,48.4 13.6,49.2 13.6,50.08 C13.44,50.08 13.28,50.08 13.12,50.16 C13.12,48.96 13.44,47.84 13.84,46.96 C13.28,47.84 12.96,48.96 12.88,50.24 C12.64,50.24 12.4,50.32 12.16,50.32 C12.16,49.04 12.48,47.84 12.96,46.88 C12.24,47.84 11.84,49.04 11.84,50.4 L11.52,50.4 L11.52,50.32 C11.52,48.96 11.92,47.68 12.48,46.64 C11.68,47.6 11.2,48.88 11.2,50.32 L11.2,50.48 C10.56,50.72 10.16,50.88 10.16,51.2 C10.16,51.52 10.64,51.76 11.36,51.92 C11.6,52.72 11.92,53.44 12.4,54 C12,53.44 11.76,52.72 11.6,51.92 L12,52 C12.16,52.72 12.48,53.44 12.88,54 C12.56,53.44 12.4,52.8 12.24,52.08 C12.48,52.16 12.72,52.16 13.04,52.24 C13.2,52.88 13.44,53.52 13.76,54 C13.52,53.52 13.36,52.88 13.2,52.24 C13.36,52.24 13.44,52.24 13.6,52.32 C13.6,52.48 13.6,52.72 13.68,52.96 C13.84,53.84 14.08,53.92 13.68,54.32 C13.44,54.56 13.6,54.96 13.76,55.12 C12.96,54.88 12,54.48 11.36,53.92 C11.12,53.6 10.8,53.28 10.64,53.04 M21.6,49.6 C21.6,49.76 21.6,50 21.6,50.16 L21.2,50.08 C21.2,49.76 21.12,49.44 21.04,49.28 C21.28,49.44 21.44,49.52 21.6,49.6 M20.88,49.28 C20.96,49.68 20.88,49.92 20.8,50.08 L20.56,50.08 C20.48,49.92 20.48,49.68 20.56,49.2 L20.48,49.2 L20.88,49.28 Z M20.16,50 L19.84,49.92 C19.92,49.44 20.08,49.12 20,48.88 L20.32,49.04 C20.24,49.12 20.16,49.6 20.16,50 M18.32,49.92 L18.08,49.92 C18,49.44 18,48.96 18.56,48.4 C18.72,48.48 18.88,48.48 19.04,48.56 L19.12,48.56 C18.96,48.72 18.4,49.44 18.32,49.92 M14.56,50.72 C14.8,51.28 14.56,51.52 14.24,51.68 L14,51.84 C13.92,51.36 13.84,50.96 13.84,50.4 C14.08,50.4 14.32,50.4 14.48,50.32 L14.56,50.72 Z M11.52,50.64 L11.92,50.56 C11.92,50.88 12,51.28 12,51.6 L11.6,51.52 C11.6,51.28 11.52,50.96 11.52,50.64 M11.36,51.52 C10.8,51.36 10.4,51.28 10.4,51.12 C10.4,50.96 10.72,50.88 11.28,50.72 C11.28,50.96 11.28,51.28 11.36,51.52 M12.16,50.56 C12.4,50.56 12.64,50.48 12.88,50.48 C12.88,50.96 12.96,51.36 13.04,51.76 C12.8,51.76 12.48,51.68 12.24,51.68 C12.24,51.28 12.24,50.96 12.16,50.56 M13.12,50.48 C13.28,50.48 13.44,50.48 13.6,50.48 C13.6,50.96 13.68,51.44 13.76,51.84 C13.6,51.84 13.36,51.84 13.2,51.84 C13.2,51.36 13.12,50.88 13.12,50.48 M17.68,51.52 C18.08,51.04 18.16,50.72 18.16,50.32 L18.4,50.32 C18.56,50.64 18.64,50.96 18.32,51.28 C18.16,51.44 18,51.68 17.92,51.92 C17.76,51.92 17.6,51.92 17.44,51.92 L17.68,51.52 Z M19.84,50.48 L19.84,50.48 L20.16,50.4 L20.24,50.48 C20.48,50.8 20.48,51.36 20.08,51.76 C19.92,51.76 19.76,51.76 19.6,51.76 C19.84,51.44 20,51.04 19.84,50.48 M20.88,51.76 L20.96,51.36 L20.96,50.72 L21.12,50.48 C21.28,50.48 21.44,50.48 21.52,50.56 C21.52,50.96 21.44,51.36 21.36,51.68 C21.2,51.68 21.04,51.76 20.88,51.76 M21.84,50.56 C22.8,50.72 23.44,50.88 23.44,51.04 C23.44,51.28 22.72,51.44 21.6,51.6 C21.68,51.28 21.76,50.96 21.84,50.56 M21.84,50.24 C21.84,50.08 21.84,49.92 21.84,49.76 L22.24,50 C22.48,50.16 22.8,50.4 22.96,50.56 C22.72,50.48 22.32,50.32 21.84,50.24 M23.28,48 C22.72,47.6 22,47.2 21.12,46.8 C20.88,46.32 20.56,45.84 20.16,45.44 C20.48,45.84 20.64,46.24 20.8,46.64 C20.56,46.56 20.32,46.4 20.08,46.32 L20,46.32 C19.84,45.92 19.52,45.6 19.2,45.28 C19.44,45.6 19.6,45.84 19.76,46.24 C15.84,44.56 15.6,44.08 15.76,43.6 L15.76,43.6 L16,43.52 L16,43.2 L16,41.44 L16.4,41.36 L16.4,41.76 L16.48,41.84 L16.56,41.76 L16.56,41.36 L17.12,41.28 C17.36,41.36 17.6,41.44 17.76,41.52 L17.76,43.2 L17.76,43.52 L18,43.52 C20.4,43.92 22.4,45.68 23.28,48 M17.76,39.76 L17.6,39.76 C17.2,39.68 16.88,39.68 16.64,39.6 L16.64,39.12 L17.84,38.96 L17.84,39.76 L17.76,39.76 Z M16.4,39.52 C16.24,39.52 16.16,39.44 16,39.44 L16,39.2 L16.4,39.12 L16.4,39.52 Z M15.68,39.44 C15.44,39.36 15.28,39.36 15.12,39.28 L15.68,39.2 L15.68,39.44 Z M15.68,43.04 C15.52,43.28 15.28,43.68 15.44,44.08 C15.68,44.64 16.56,45.2 20.08,46.64 C21.76,47.36 25.6,48.72 24.8,51.52 C24.64,52 24,52.56 23.6,52.64 L23.6,52.56 L23.52,52.64 C23.52,52.56 23.6,52.32 23.6,52.16 L23.76,52.08 L23.84,51.84 L23.68,51.84 L23.76,51.6 L23.76,51.52 L23.92,51.6 L23.92,51.44 L23.92,51.44 L24.16,51.44 L24.24,51.2 L24,51.2 L24,51.36 L23.92,51.2 L23.6,51.04 C23.52,50.88 23.36,50.72 23.2,50.48 L23.2,50.48 L23.2,50.08 L22.8,50 L22.72,50.08 L22.4,49.84 L22.56,49.76 L22.64,49.28 L22.24,49.28 L22.16,49.6 C22,49.52 21.92,49.44 21.76,49.36 L21.76,49.2 L21.84,49.12 L21.92,48.96 L22.08,48.96 L22.08,48.8 L21.84,48.72 L21.84,48.72 L21.84,48.64 C21.68,48.48 21.52,48.4 21.36,48.48 C21.28,48.56 21.28,48.72 21.28,48.88 L21.28,48.88 L21.2,49.04 C20.96,48.88 20.72,48.8 20.4,48.64 L20.24,48.24 C20.08,48.08 19.84,48 19.76,48.16 L19.68,48.32 L19.44,48.24 L19.44,48 L19.44,48 L19.44,47.6 L19.04,47.52 L19.04,47.92 L19.2,48.16 L19.04,48.08 C19.04,47.92 18.96,47.76 18.8,47.68 L18.56,47.6 L18.56,47.6 L18.56,47.36 L18.56,47.36 L18.56,47.36 L18.56,47.04 L18.24,46.96 L18.24,47.28 L18.32,47.36 L18.32,47.52 L18.4,47.6 L18.24,47.68 L18.24,47.84 L18.08,47.76 C18.08,47.6 18,47.44 17.84,47.28 L17.52,47.12 L17.6,47.04 L17.52,46.72 L17.2,46.8 L17.28,47.12 L17.36,47.2 L17.28,47.2 L17.28,47.28 C17.12,47.2 16.96,47.12 16.88,47.04 L16.72,46.72 L16.48,46.48 C16.56,46.4 16.56,46.16 16.48,46 L16.16,45.84 L16.16,45.84 L16,45.76 L15.92,45.6 L15.6,45.52 L15.6,45.92 L15.84,46.08 L15.84,46.16 L15.92,46.24 L16,46.48 L16.24,46.64 L16.24,46.8 C16.08,46.72 15.84,46.56 15.68,46.48 L15.52,46.16 C15.36,46 15.2,45.84 15.12,45.92 L15.04,46 C14.8,45.84 14.64,45.68 14.48,45.52 C14.56,45.44 14.48,45.2 14.32,45.04 C14.16,44.88 14,44.8 13.92,44.8 L13.84,44.56 L14,44.4 C14.08,44.24 14,44.08 13.92,44 L13.76,44 L13.84,43.6 L13.92,43.84 C14,43.92 14.16,43.84 14.24,43.68 C14.32,43.52 14.32,43.36 14.16,43.28 L13.84,43.44 C13.92,43.2 14,43.04 14.16,42.88 L14.24,43.04 C14.4,43.12 14.56,43.04 14.56,42.88 C14.64,42.72 14.64,42.56 14.48,42.48 C14.8,42.16 15.2,42 15.52,41.84 L15.52,43.04 L15.68,43.04 Z M9.6,52.96 L9.52,53.04 L9.52,52.8 L9.6,52.8 L9.68,52.64 L9.6,52.48 C9.76,52.16 10,52 10,52 L10,52.16 L9.92,52.32 L10,52.48 L10.08,52.4 C10.24,52.88 10.56,53.6 11.28,54.08 C12.72,55.12 14.72,55.44 14.72,55.44 C14.32,55.52 14,55.6 13.52,55.6 L13.2,55.44 L13.2,55.44 L13.2,55.44 L13.04,55.28 L12.88,55.44 L12.8,55.44 L12.48,55.52 L12.48,55.44 L12.48,55.2 L12.4,55.28 L12.24,55.28 L12,55.28 L11.84,55.2 L11.84,55.04 L11.76,54.8 L11.6,55.04 L11.6,55.04 L11.44,54.96 L11.28,54.96 L11.28,54.8 C11.28,54.64 11.2,54.48 11.12,54.48 L10.96,54.56 L10.88,54.48 L10.8,54.48 L10.72,54.4 L10.64,54.48 L10.4,54.48 L10.4,54.4 L10.32,54.08 L10.4,53.84 L10.24,53.6 L10.08,53.84 L10.08,53.92 L9.92,54.08 L9.84,54.08 L9.68,54.16 L9.68,54.16 L9.76,53.92 L9.76,53.76 L9.92,53.52 L9.76,53.28 L9.68,53.6 L9.68,53.68 L9.6,53.76 L9.52,53.52 L9.52,53.36 L9.6,53.36 L9.76,53.2 L9.6,52.96 Z M16.56,57.68 L16.8,57.68 C16.4,58.64 16,60.4 17.76,61.68 C19.2,62.64 20.88,63.2 22.4,63.2 C24.88,63.2 26.8,62.08 26.8,62.08 C26.8,62.08 24.16,64.16 20.64,63.28 C14.64,61.68 16.24,58.24 16.56,57.68 M21.28,62.72 C17.44,62.16 16.32,59.76 16.88,58.32 C17.04,58 17.04,57.76 17.12,57.68 C20,57.6 22.48,55.76 23.52,53.12 C23.76,53.04 24.32,52.8 24.8,52.32 L27.44,59.36 C27.44,59.36 27.84,60.64 27.04,61.36 C26,62.4 23.52,63.04 21.28,62.72 M37.92,28.16 L41.84,29.76 L41.84,29.76 L41.84,29.92 L40.56,30 L38.4,30.8 C38.32,29.92 38.08,29.04 37.92,28.16 M41.04,37.44 L39.28,37.44 C39.2,36.56 39.2,35.68 39.04,34.8 L42.48,35.92 C42.56,36.56 42.56,37.2 42.56,37.84 L41.04,37.44 Z M45.68,31.6 L45.84,33.68 L42.64,32.56 L42.64,32.56 L42.4,31.28 L42.32,30.24 L45.68,31.6 Z M42.24,32.88 L42.24,32.88 L42.56,32.96 L45.44,34 L44.08,34.96 L42.72,35.6 L42.48,35.68 L42.32,35.6 L39.12,34.56 L40.64,34 L42.24,32.88 Z M44.16,24.24 L44.8,26.16 L41.36,24.64 L40.88,22.64 L44.16,24.24 Z M41.28,24.88 L44.72,26.48 L43.04,28.48 L41.76,29.52 L38.16,27.92 L40,26.4 L41.28,24.88 Z M37.68,20.64 L40.08,21.92 L39.52,22.8 L38.8,23.12 L36.8,24.56 C36.56,23.84 36.24,23.12 36,22.4 L37.68,20.64 Z M27.12,32.72 L30.4,24.24 L30.96,24.08 C32.32,27.36 33.28,31.28 33.6,35.6 L28,34.16 C27.68,33.6 27.44,33.12 27.12,32.72 M19.52,32.16 L19.2,32.24 L18.4,30.16 C18.48,30 18.48,29.84 18.48,29.68 L18.48,29.6 L19.52,32.16 Z M18.24,28.88 C18.16,28.72 18,28.64 17.84,28.56 C17.92,28.4 17.92,28.32 17.92,28.16 L17.92,28 L18.24,28.88 Z M17.68,28.16 L17.52,28.48 L17.44,28.48 L16.16,28.48 L16.08,28.48 L16,28.16 C16,27.84 16.24,27.6 16.48,27.6 L17.12,27.6 C17.44,27.6 17.68,27.84 17.68,28.16 M15.52,29.6 C15.52,29.2 15.92,28.8 16.4,28.8 L17.44,28.8 C17.92,28.8 18.32,29.12 18.32,29.6 C18.32,29.76 18.24,29.92 18.16,30.08 L18.16,30.08 C18.16,30.08 17.52,29.84 16.96,29.84 C16.4,29.84 15.76,30.08 15.76,30.08 L15.76,30.16 C15.52,30 15.52,29.84 15.52,29.6 M16,30.32 C16,30.32 16.16,30.24 16.4,30.16 L16.4,30.4 L16.48,30.48 L16.56,30.4 L16.56,30.16 L16.88,30.16 C17.44,30.16 17.76,30.4 17.76,30.4 L17.76,32.48 L16.56,32.64 L16.56,32.32 L16.48,32.24 L16.4,32.32 L16.4,32.72 L16,32.72 L16,30.32 Z M0.72,40.56 L13.76,33.36 L19.84,32.4 L24.4,33.52 L24.8,33.6 L24.88,33.6 L25.44,33.76 L25.44,33.76 L36.4,36.56 L0.72,40.56 Z M7.04,65.44 L6.8,65.76 C6.24,66.24 5.04,66.56 3.68,66.56 C1.76,66.56 0.16,65.84 0.16,64.96 C0.16,64.08 1.76,63.36 3.68,63.36 C4.16,63.36 4.64,63.44 5.04,63.52 C5.2,63.52 5.36,63.6 5.44,63.6 L5.44,63.84 C5.28,63.76 5.12,63.76 4.88,63.76 C4.48,63.68 4.08,63.68 3.68,63.68 C2.16,63.68 0.88,64.08 0.88,64.56 C0.88,65.04 2.08,65.52 3.68,65.52 C4.48,65.52 5.2,65.36 5.76,65.2 C6.24,65.04 6.48,64.8 6.48,64.56 C6.48,64.32 6.24,64.16 5.92,64 L5.92,63.68 C6.56,63.92 6.96,64.24 7.12,64.64 L7.2,64.96 C7.2,65.2 7.2,65.36 7.04,65.44 M4.64,64.56 C2.64,64.24 1.6,64.64 1.36,64.72 L1.28,64.56 C1.28,64.16 2.4,63.84 3.76,63.84 C4.24,63.84 4.64,63.84 5.04,63.92 C5.2,63.92 5.36,64 5.52,64 L5.52,64.8 L5.52,65.2 C5.04,65.36 4.48,65.44 3.76,65.44 C2.96,65.44 2.24,65.36 1.76,65.12 C2.24,64.64 4.16,64.8 4.48,64.8 C4.88,64.72 4.64,64.56 4.64,64.56 M5.92,64.24 C6.16,64.32 6.24,64.48 6.24,64.56 C6.24,64.64 6.08,64.8 5.92,64.88 L5.92,64.24 Z M9.68,65.36 L7.36,65.44 L7.44,65.04 C7.44,64.88 7.36,64.72 7.28,64.56 L7.44,64.32 L8.24,63.04 C8.72,63.76 9.2,64.48 9.68,65.12 L9.68,65.36 Z M13.52,69.84 L10.32,70.16 L11.28,68.8 L11.84,67.44 C12.4,68 13.04,68.48 13.68,68.88 L13.52,69.84 Z M18.32,73.12 L15.44,73.52 L16,71.92 L16.24,70.16 C16.96,70.48 17.68,70.72 18.4,70.88 L18.32,73.12 Z M20.48,74.88 L20.88,73.28 L20.88,71.12 L21.04,71.12 C21.76,71.12 22.48,71.04 23.2,70.88 L23.44,72.8 L24.08,74.32 L20.48,74.88 Z M21.04,65.6 C11.44,65.6 6.4,53.92 6.96,40.24 L8.24,40.08 C8,41.2 8.32,42.08 8.32,42.16 L15.52,41.52 C15.28,41.6 14.96,41.76 14.64,42 L8.24,42.64 C8.24,43.04 8.24,43.52 8.24,43.92 C8.24,46.96 8.64,49.76 9.44,52.4 C9.28,52.72 9.2,53.12 9.36,53.6 C9.44,54.16 9.84,54.64 10.4,55.04 C10.88,56.16 11.36,57.28 12,58.24 L12.8,56.32 C12.96,56.48 12.96,56.4 13.04,56.48 L12.24,58.64 C12.24,58.64 12,59.52 12.8,60.32 C13.12,60.72 13.36,60.72 13.6,60.64 L14.88,57.44 L15.12,57.52 L13.84,60.88 C16.08,63.52 18.72,65.12 21.36,65.12 C23.04,65.12 24.72,64.4 26.24,63.28 C26.88,62.72 27.6,62.08 28.16,61.44 C26.08,64 23.6,65.6 21.04,65.6 M28.4,69.92 L26,70.08 C26.72,69.76 27.36,69.36 28.08,68.88 L28.4,69.92 Z M27.44,74.64 L25.92,74.88 L26.32,74.48 L28.32,74.32 L27.44,74.64 Z M29.6,73.92 L27.04,74.24 L26.48,74.32 L26.24,74.32 L26.24,72.08 L26,70.32 L28.48,70.16 L28.88,71.2 L29.76,72.8 L29.6,73.92 Z M33.12,72.4 L30.48,72.64 L31.6,71.76 L34.32,71.52 L33.12,72.4 Z M31.36,71.04 C31.52,71.04 31.6,71.12 31.76,71.12 L32.08,71.2 C32.4,71.28 32.64,71.28 32.96,71.36 L31.6,71.44 L31.36,71.04 Z M38.56,69.04 C38.56,70.16 36.48,71.04 34,71.04 C33.44,71.04 32.88,70.96 32.4,70.88 L32.08,70.8 C30.48,70.48 29.44,69.76 29.44,68.96 C29.44,67.84 31.44,66.96 34,66.96 C34.48,66.96 35.04,67.04 35.44,67.04 L35.76,67.12 C36.16,67.2 36.48,67.28 36.8,67.36 L36.8,67.76 C36.48,67.6 36,67.52 35.52,67.44 L35.2,67.52 C34.8,67.44 34.4,67.44 34,67.44 C32,67.44 30.4,67.92 30.4,68.56 C30.4,69.12 31.68,69.6 33.36,69.68 L33.68,69.68 L34,69.68 C35.12,69.68 36.08,69.52 36.8,69.28 C36.96,69.2 37.12,69.12 37.2,69.04 L37.2,68.64 L37.2,68.56 L37.2,68.56 L37.2,68.32 L37.44,68.56 L37.52,68.64 C37.6,68.64 37.52,68.32 37.2,68.08 L37.2,68.08 L37.2,67.68 C38.08,68 38.56,68.48 38.56,69.04 M36,66.88 L35.92,66.88 L35.84,66.64 L35.36,65.04 L34.08,62.48 L36.8,62.4 L36.8,65.12 L36.8,65.68 L36.8,66.8 L36,66.88 Z M36.8,67.04 L36.8,67.2 C36.64,67.12 36.48,67.12 36.32,67.04 L36.8,67.04 Z M34.88,68.32 L34.56,68.24 C34.4,68.24 34.24,68.24 34,68.24 C32.56,68.24 31.28,68.56 30.96,68.96 C30.8,68.88 30.72,68.72 30.72,68.64 C30.72,68.16 32.16,67.76 33.92,67.76 C34.24,67.76 34.64,67.76 34.96,67.84 L35.28,67.84 C35.92,67.92 36.4,68.08 36.72,68.24 L36.72,69.2 C36.16,69.44 35.12,69.68 33.92,69.68 L33.76,69.68 L33.44,69.68 C32.8,69.68 32.24,69.6 31.84,69.44 C31.68,69.36 31.52,69.28 31.52,69.2 C31.52,68.96 32.72,68.72 34.32,68.72 L34.56,68.72 L34.72,68.72 C35.12,68.48 35.2,68.4 34.88,68.32 M38.32,68.08 C38.08,67.84 37.68,67.6 37.2,67.36 L37.2,67.04 L39.12,66.96 L38.32,68.08 Z M38.96,64.24 L39.44,66.64 L37.28,66.8 L37.28,64.96 L37.28,64.32 L37.28,62.4 L37.68,62.4 L37.92,62.4 L38.4,63.2 L38.96,64.24 Z M41.76,62.64 L38.64,62.72 L39.36,61.12 L42.56,61.04 L41.76,62.64 Z M41.76,58.72 L42.56,60.88 L39.44,60.88 L39.2,60.4 L38.4,58.96 L37.2,57.6 L37.2,62 L37.2,62.08 L37.2,62.08 L37.2,62 L36.8,61.68 L36.8,62.08 L33.92,62.16 C34.4,61.44 34.8,60.64 35.2,59.84 L36.8,61.6 L36.88,61.68 L36.88,57.04 L37.28,57.6 L37.28,56.96 L40.48,57.12 L41.76,58.72 Z M44.16,55.84 L41.04,55.76 L41.04,55.76 L41.52,53.92 L41.52,53.84 L44.48,54.08 L44.16,55.84 Z M43.04,52.16 L44.4,53.76 L41.68,53.6 L41.6,53.6 L41.36,53.36 L40.32,52.24 L38.48,50.96 L42.08,51.36 L43.04,52.16 Z M43.52,48.88 L42.4,48.64 L42.64,48.48 L44.32,48.8 L43.52,48.88 Z M45.6,48.72 L42.48,48.24 L42.72,46.24 L45.92,46.8 L45.6,48.72 Z M44.16,45.6 L45.52,46.48 L42.8,46 L41.36,44.8 L42.88,45.04 L44.16,45.6 Z" id="Shape"></path>
            <polygon id="Path" points="32.32 39.92 32 40.4 32.48 40.32 32.8 39.84"></polygon>
            <polygon id="Path" points="1.52 50.16 1.6 50 1.92 49.76 1.92 46.32 1.84 46.32 1.52 46.24"></polygon>
            <path d="M3.04,41.52 L2.72,42 L3.04,42 C3.04,41.76 3.04,41.6 3.04,41.52" id="Path"></path>
            <polygon id="Path" points="0.56 51.52 1.04 53.6 1.52 53.68 1.52 50.16"></polygon>
            <polygon id="Path" points="2.72 41.92 2.56 41.92 0.16 43.6 0.24 45.84 1.52 46.24 1.52 43.44"></polygon>
            <path d="M31.52,54.64 C31.68,54.24 31.84,53.76 31.92,53.36 L31.84,41.68 L31.36,41.76 L31.52,54.64 Z" id="Path"></path>
            <polygon id="Path" points="10.8 3.6 8.8 4.48 8.8 9.76 10.8 8.96"></polygon>
            <polygon id="Path" points="10.8 27.76 8.8 28.16 8.8 33.68 10.8 33.36"></polygon>
            <polygon id="Path" points="10.8 21.76 8.8 22.32 8.8 27.68 10.8 27.2"></polygon>
            <polygon id="Path" points="10.8 9.44 8.8 10.24 8.8 15.68 10.8 15.04"></polygon>
            <polygon id="Path" points="10.8 15.52 8.8 16.16 8.8 21.76 10.8 21.2"></polygon>
            <polygon id="Path" points="6.56 22.88 6.56 28.16 8.32 27.76 8.32 22.4"></polygon>
            <polygon id="Path" points="6.56 16.96 6.56 22.4 8.32 21.92 8.32 16.32"></polygon>
            <polygon id="Path" points="6.56 28.64 6.56 34.08 8.32 33.76 8.32 28.32"></polygon>
            <polygon id="Path" points="6.56 11.04 6.56 16.4 8.32 15.84 8.32 10.4"></polygon>
            <polygon id="Path" points="6.56 5.44 6.56 10.56 8.32 9.92 8.32 4.72"></polygon>
            <polygon id="Path" points="6.08 23.04 4.16 23.52 4.16 28.72 6.08 28.32"></polygon>
            <polygon id="Path" points="6.08 11.28 4.16 12 4.16 17.2 6.08 16.56"></polygon>
            <polygon id="Path" points="6.08 28.8 4.16 29.2 4.16 34.48 6.08 34.16"></polygon>
            <polygon id="Path" points="6.08 5.68 4.16 6.56 4.16 11.52 6.08 10.72"></polygon>
            <polygon id="Path" points="6.08 17.12 4.16 17.76 4.16 23.04 6.08 22.56"></polygon>
            <polygon id="Path" points="13.92 27.04 11.28 27.6 11.28 33.28 13.92 32.8"></polygon>
            <path d="M14.48,33.76 L16.88,38.16 L18.96,33.04 L14.48,33.76 Z M15.68,33.84 L15.68,35.28 L14.96,33.92 L15.68,33.84 Z M16.8,37.44 L16.56,37.04 L16.56,36.8 L16.48,36.72 L16.4,36.72 L16,35.92 L16,33.76 L16.4,33.68 L16.4,35.84 L16.48,35.92 L16.56,35.84 L16.56,33.68 L17.76,33.52 L17.76,35.04 L16.8,37.44 Z" id="Shape"></path>
            <path d="M2.56,40.08 L16.32,38.48 L9.36,36.32 L2.56,40.08 Z M6.08,38.48 L6.56,38.24 L6.56,39.28 L6.08,39.36 L6.08,38.48 Z M8.32,37.28 L8.8,37.04 L8.8,39.04 L8.32,39.12 L8.32,37.28 Z M10.8,37.04 L11.28,37.2 L11.28,38.72 L10.8,38.8 L10.8,37.04 Z M13.92,38.4 L13.92,38 L14.8,38.32 L13.92,38.4 Z" id="Shape"></path>
            <path d="M24.32,34 L19.84,32.88 L19.36,32.96 L17.36,37.84 L24.32,34 Z M19.92,33.2 L20,33.52 C20,33.52 20.56,33.52 21.12,33.52 L21.84,33.68 C21.84,33.76 21.92,34.32 22.32,34.64 L21.68,35.04 C20.96,34.4 20.08,34 19.2,34 L19.2,33.92 L19.6,33.76 C19.6,33.76 19.52,33.52 19.44,33.36 L19.68,33.28 L19.92,33.2 Z" id="Shape"></path>
            <path d="M14.08,33.76 L13.92,33.76 L9.92,36 L16.4,38 L14.08,33.76 Z M15.68,37.52 L13.92,36.96 L13.92,34.24 L15.68,37.52 Z M10.8,35.92 L11.28,35.68 L11.28,36.16 L10.8,35.92 L10.8,35.92 Z" id="Shape"></path>
            <path d="M24.88,34.08 L17.12,38.4 L34.32,36.4 L24.88,34.08 Z M22.48,35.76 L23.92,34.96 C24.16,35.36 24.32,35.84 24.56,36.32 C24.64,36.56 24.72,36.88 24.8,37.12 L23.2,37.36 C23.04,36.8 22.8,36.24 22.48,35.76 M26.32,34.8 L26.72,34.88 C27.04,35.44 27.36,36.16 27.52,36.88 L27.2,36.88 C26.96,36.16 26.64,35.44 26.32,34.8 M28.56,35.36 L32.48,36.32 L29.04,36.72 C28.88,36.24 28.72,35.76 28.56,35.36" id="Shape"></path>
            <polygon id="Path" points="13.52 39.68 13.68 39.84 13.84 39.68 13.68 39.52"></polygon>
            <polygon id="Path" points="23.36 50 23.6 50 23.6 49.76 23.44 49.76"></polygon>
            <polygon id="Path" points="23.52 50.48 23.6 50.56 23.6 50.8 23.92 50.88 23.92 50.48 23.84 50.4 23.76 50.24 23.52 50.24"></polygon>
            <path d="M14.16,43.84 C14,43.92 14,44.08 14.08,44.24 C14.16,44.4 14.32,44.48 14.48,44.4 C14.64,44.32 14.64,44.16 14.56,44 C14.48,43.84 14.32,43.76 14.16,43.84" id="Path"></path>
            <polygon id="Path" points="14.64 44.72 14.88 44.8 14.88 44.48 14.64 44.48"></polygon>
            <path d="M14.8,45.12 L14.88,45.52 C14.96,45.68 15.12,45.76 15.2,45.68 C15.28,45.6 15.28,45.44 15.12,45.28 L14.8,45.12 Z" id="Path"></path>
            <polygon id="Path" points="16.88 46.4 17.04 46.48 17.04 46.24 16.88 46.16"></polygon>
            <polygon id="Path" points="17.76 46.4 17.92 46.48 17.92 46.24 17.76 46.24"></polygon>
            <polygon id="Path" points="20 47.6 20.16 47.68 20.08 47.52 19.92 47.44"></polygon>
            <polygon id="Path" points="21.68 48.24 21.76 48.24 21.76 48.16 21.68 48.16"></polygon>
            <path d="M21.12,48.56 L21.04,48.08 L20.56,48 L20.64,48.48 C20.8,48.64 20.96,48.64 21.12,48.56" id="Path"></path>
            <polygon id="Path" points="16.48 40.48 16.64 40.56 16.72 40.48 16.64 40.4"></polygon>
            <polygon id="Path" points="14.16 40.72 14.24 40.8 14.32 40.72 14.24 40.64"></polygon>
            <polygon id="Path" points="17.6 40.4 17.68 40.48 17.76 40.4 17.68 40.32"></polygon>
            <polygon id="Path" points="18.88 41.6 18.96 41.76 19.12 41.6 18.96 41.52"></polygon>
            <polygon id="Path" points="18.48 41.44 18.48 41.44 18.32 41.6 18.48 41.68 18.56 41.6 18.64 41.52 18.56 41.44"></polygon>
            <polygon id="Path" points="18.24 40.96 18.4 41.04 18.48 40.96 18.4 40.88"></polygon>
            <polygon id="Path" points="17.04 40.64 17.2 40.72 17.28 40.8 17.36 40.72 17.36 40.64 17.36 40.64 17.2 40.48"></polygon>
            <polygon id="Path" points="15.76 40.24 15.84 40.32 15.92 40.24 15.84 40.16"></polygon>
            <polygon id="Path" points="9.84 52.8 9.92 52.96 10.08 52.8 9.92 52.64"></polygon>
            <polygon id="Path" points="10.48 54.32 10.64 54.48 10.8 54.32 10.64 54.16"></polygon>
            <polygon id="Path" points="10.88 54.4 10.96 54.48 11.04 54.4 10.96 54.24"></polygon>
            <polygon id="Path" points="16.4 42.08 16.4 42.24 16.48 42.4 16.56 42.24 16.56 42.08 16.48 42"></polygon>
            <polygon id="Path" points="16.4 42.64 16.4 42.72 16.48 42.8 16.56 42.72 16.56 42.64 16.48 42.48"></polygon>
            <polygon id="Path" points="16.4 43.04 16.4 43.12 16.48 43.28 16.56 43.12 16.56 43.04 16.48 42.96"></polygon>
            <polygon id="Path" points="16.4 38.88 16.4 39.52 16.48 39.6 16.56 39.52 16.56 38.88 16.48 38.72"></polygon>
        </g>
    </g>
</svg>